<?xml version="1.0" encoding="UTF-8" standalone="no"?>
<!-- Created with Inkscape (http://www.inkscape.org/) -->

<svg
   xmlns:dc="http://purl.org/dc/elements/1.1/"
   xmlns:cc="http://creativecommons.org/ns#"
   xmlns:rdf="http://www.w3.org/1999/02/22-rdf-syntax-ns#"
   xmlns:svg="http://www.w3.org/2000/svg"
   xmlns="http://www.w3.org/2000/svg"
   xmlns:sodipodi="http://sodipodi.sourceforge.net/DTD/sodipodi-0.dtd"
   xmlns:inkscape="http://www.inkscape.org/namespaces/inkscape"
   width="744.09448819"
   height="1052.3622047"
   id="svg4397"
   version="1.1"
   inkscape:version="0.48.4 r9939"
   sodipodi:docname="MoneyDisplay.svg"
   inkscape:export-filename="C:\Users\Rob\Desktop\UnityProjects\Rudis\Assets\Art\MoneyDisplay.png"
   inkscape:export-xdpi="79.214142"
   inkscape:export-ydpi="79.214142">
  <defs
     id="defs4399" />
  <sodipodi:namedview
     id="base"
     pagecolor="#ffffff"
     bordercolor="#666666"
     borderopacity="1.0"
     inkscape:pageopacity="0.0"
     inkscape:pageshadow="2"
     inkscape:zoom="2.8"
     inkscape:cx="120.70379"
     inkscape:cy="915.52386"
     inkscape:document-units="px"
     inkscape:current-layer="layer1"
     showgrid="false"
     showguides="true"
     inkscape:guide-bbox="true"
     inkscape:window-width="1920"
     inkscape:window-height="1018"
     inkscape:window-x="1912"
     inkscape:window-y="-8"
     inkscape:window-maximized="1" />
  <metadata
     id="metadata4402">
    <rdf:RDF>
      <cc:Work
         rdf:about="">
        <dc:format>image/svg+xml</dc:format>
        <dc:type
           rdf:resource="http://purl.org/dc/dcmitype/StillImage" />
        <dc:title></dc:title>
      </cc:Work>
    </rdf:RDF>
  </metadata>
  <g
     inkscape:label="Layer 1"
     inkscape:groupmode="layer"
     id="layer1">
    <rect
       style="fill:#b3b3b3;fill-opacity:1;stroke:#000000;stroke-width:2.20748734;stroke-miterlimit:4;stroke-opacity:1;stroke-dasharray:none"
       id="rect4405"
       width="337.62604"
       height="77.320351"
       x="42.962193"
       y="45.321842" />
    <rect
       style="fill:#b3b3b3;fill-opacity:1;stroke:#666666;stroke-width:2.1278863;stroke-miterlimit:4;stroke-opacity:1;stroke-dasharray:none"
       id="rect4915"
       width="317.84662"
       height="62.524162"
       x="53.312611"
       y="53.372864" />
    <g
       id="g4922"
       transform="translate(21.172593,-94.515616)">
      <path
         sodipodi:nodetypes="ssssss"
         inkscape:connector-curvature="0"
         id="path4919"
         d="m 131.31983,192.21729 c 0,9.20521 -7.4623,16.66751 -16.66752,16.66751 -9.20521,0 -16.667513,-7.4623 -16.667513,-16.66751 0,-9.20522 7.462303,-16.66752 16.667513,-16.66752 4.14789,0 10.16567,2.18961 13.08252,4.69666 3.55637,3.05673 3.585,6.91353 3.585,11.97086 z"
         style="fill:#e6e6e6;fill-opacity:1;stroke:#666666;stroke-width:1;stroke-miterlimit:4;stroke-opacity:1"
         transform="matrix(1.0439109,0,0,1.0590624,-64.865714,-35.091391)" />
      <path
         transform="translate(-57.073619,-22.728432)"
         d="m 131.31983,192.21729 c 0,9.20521 -7.4623,16.66751 -16.66752,16.66751 -9.20521,0 -16.667513,-7.4623 -16.667513,-16.66751 0,-9.20522 7.462303,-16.66752 16.667513,-16.66752 9.20522,0 16.66752,7.4623 16.66752,16.66752 z"
         sodipodi:ry="16.667517"
         sodipodi:rx="16.667517"
         sodipodi:cy="192.21729"
         sodipodi:cx="114.65231"
         id="path4917"
         style="fill:#e6e6e6;fill-opacity:1;stroke:#666666;stroke-width:2;stroke-miterlimit:4;stroke-opacity:1;stroke-dasharray:none"
         sodipodi:type="arc" />
    </g>
    <g
       id="g4926"
       transform="translate(35.819805,-75.827794)">
      <path
         transform="matrix(1.0439109,0,0,1.0590624,-64.865714,-35.091391)"
         style="fill:#e6e6e6;fill-opacity:1;stroke:#666666;stroke-width:1;stroke-miterlimit:4;stroke-opacity:1"
         d="m 131.31983,192.21729 c 0,9.20521 -7.4623,16.66751 -16.66752,16.66751 -9.20521,0 -16.667513,-7.4623 -16.667513,-16.66751 0,-9.20522 7.462303,-16.66752 16.667513,-16.66752 4.14789,0 10.16567,2.18961 13.08252,4.69666 3.55637,3.05673 3.585,6.91353 3.585,11.97086 z"
         id="path4928"
         inkscape:connector-curvature="0"
         sodipodi:nodetypes="ssssss" />
      <path
         sodipodi:type="arc"
         style="fill:#e6e6e6;fill-opacity:1;stroke:#666666;stroke-width:2;stroke-miterlimit:4;stroke-opacity:1;stroke-dasharray:none"
         id="path4930"
         sodipodi:cx="114.65231"
         sodipodi:cy="192.21729"
         sodipodi:rx="16.667517"
         sodipodi:ry="16.667517"
         d="m 131.31983,192.21729 c 0,9.20521 -7.4623,16.66751 -16.66752,16.66751 -9.20521,0 -16.667513,-7.4623 -16.667513,-16.66751 0,-9.20522 7.462303,-16.66752 16.667513,-16.66752 9.20522,0 16.66752,7.4623 16.66752,16.66752 z"
         transform="translate(-57.073619,-22.728432)" />
    </g>
    <g
       transform="translate(20.667517,-72.797336)"
       id="g4946">
      <path
         sodipodi:nodetypes="ssssss"
         inkscape:connector-curvature="0"
         id="path4948"
         d="m 131.31983,192.21729 c 0,9.20521 -7.4623,16.66751 -16.66752,16.66751 -9.20521,0 -16.667513,-7.4623 -16.667513,-16.66751 0,-9.20522 7.462303,-16.66752 16.667513,-16.66752 4.14789,0 10.16567,2.18961 13.08252,4.69666 3.55637,3.05673 3.585,6.91353 3.585,11.97086 z"
         style="fill:#e6e6e6;fill-opacity:1;stroke:#666666;stroke-width:1;stroke-miterlimit:4;stroke-opacity:1"
         transform="matrix(1.0439109,0,0,1.0590624,-64.865714,-35.091391)" />
      <path
         transform="translate(-57.073619,-22.728432)"
         d="m 131.31983,192.21729 c 0,9.20521 -7.4623,16.66751 -16.66752,16.66751 -9.20521,0 -16.667513,-7.4623 -16.667513,-16.66751 0,-9.20522 7.462303,-16.66752 16.667513,-16.66752 9.20522,0 16.66752,7.4623 16.66752,16.66752 z"
         sodipodi:ry="16.667517"
         sodipodi:rx="16.667517"
         sodipodi:cy="192.21729"
         sodipodi:cx="114.65231"
         id="path4950"
         style="fill:#e6e6e6;fill-opacity:1;stroke:#666666;stroke-width:2;stroke-miterlimit:4;stroke-opacity:1;stroke-dasharray:none"
         sodipodi:type="arc" />
    </g>
  </g>
</svg>
