<?xml version="1.0" encoding="UTF-8" standalone="no"?>
<!-- Created with Inkscape (http://www.inkscape.org/) -->

<svg
   xmlns:dc="http://purl.org/dc/elements/1.1/"
   xmlns:cc="http://creativecommons.org/ns#"
   xmlns:rdf="http://www.w3.org/1999/02/22-rdf-syntax-ns#"
   xmlns:svg="http://www.w3.org/2000/svg"
   xmlns="http://www.w3.org/2000/svg"
   xmlns:sodipodi="http://sodipodi.sourceforge.net/DTD/sodipodi-0.dtd"
   xmlns:inkscape="http://www.inkscape.org/namespaces/inkscape"
   width="744.09448819"
   height="1052.3622047"
   id="svg2"
   version="1.1"
   inkscape:version="0.48.4 r9939"
   sodipodi:docname="TabletIcon.svg"
   inkscape:export-filename="C:\Users\Rob\Desktop\UnityProjects\Rudis\Assets\Art\TabletIcon.png"
   inkscape:export-xdpi="32.256435"
   inkscape:export-ydpi="32.256435">
  <defs
     id="defs4" />
  <sodipodi:namedview
     id="base"
     pagecolor="#ffffff"
     bordercolor="#666666"
     borderopacity="1.0"
     inkscape:pageopacity="0.0"
     inkscape:pageshadow="2"
     inkscape:zoom="1.4"
     inkscape:cx="325.46035"
     inkscape:cy="913.85085"
     inkscape:document-units="px"
     inkscape:current-layer="layer1"
     showgrid="false"
     inkscape:window-width="1920"
     inkscape:window-height="1018"
     inkscape:window-x="1912"
     inkscape:window-y="-8"
     inkscape:window-maximized="1" />
  <metadata
     id="metadata7">
    <rdf:RDF>
      <cc:Work
         rdf:about="">
        <dc:format>image/svg+xml</dc:format>
        <dc:type
           rdf:resource="http://purl.org/dc/dcmitype/StillImage" />
        <dc:title></dc:title>
      </cc:Work>
    </rdf:RDF>
  </metadata>
  <g
     inkscape:label="Layer 1"
     inkscape:groupmode="layer"
     id="layer1">
    <path
       style="fill:#e6e6e6;fill-opacity:1;stroke:#666666;stroke-width:1.04131663;stroke-miterlimit:4;stroke-opacity:1"
       d="m 44.568897,30.65415 3.665887,-5.808377 139.229396,5.808377 2.27284,184.03903 -2.27284,4.81816 -142.895283,0 z"
       id="rect4357"
       inkscape:connector-curvature="0"
       sodipodi:nodetypes="ccccccc" />
    <rect
       style="fill:#e6e6e6;fill-opacity:1;stroke:#666666;stroke-width:3;stroke-miterlimit:4;stroke-opacity:1;stroke-dasharray:none"
       id="rect2985"
       width="139.34085"
       height="188.62657"
       x="49.258148"
       y="25.906046" />
    <rect
       y="36.954205"
       x="58.791077"
       height="166.53026"
       width="120.27499"
       id="rect4307"
       style="fill:#e6e6e6;fill-opacity:1;stroke:#666666;stroke-width:0.87295848;stroke-miterlimit:4;stroke-opacity:1;stroke-dasharray:none" />
    <path
       style="fill:none;stroke:#666666;stroke-width:1px;stroke-linecap:butt;stroke-linejoin:miter;stroke-opacity:1"
       d="m 65.912454,53.82639 c 8.365064,-2.436115 5.426042,-10.48386 15.657364,-0.252538 1.512352,1.512352 6.011385,-1.970774 6.81853,-2.777919 2.559632,-2.559633 4.151798,0.868803 5.555839,2.272843 0.829149,0.82915 4.694899,-0.906827 5.050763,-1.262691 0.997465,-0.997465 4.00012,2.293089 6.06091,1.262691 2.37507,-1.187531 3.78678,-2.145925 5.55584,-3.030458"
       id="path4315"
       inkscape:connector-curvature="0" />
    <path
       style="fill:none;stroke:#666666;stroke-width:1px;stroke-linecap:butt;stroke-linejoin:miter;stroke-opacity:1"
       d="m 123.49115,54.078929 c -1.13628,0.698559 4.09962,-4.991751 5.55584,-3.535534 1.01688,1.016879 13.93983,5.758141 15.40482,4.293148 0.24562,-0.245612 4.42655,-2.89706 4.79823,-2.525381 1.2101,1.210104 11.57195,5.600639 13.8896,3.282995 2.07425,-2.074251 2.49207,-4.336993 6.06091,-5.050762"
       id="path4317"
       inkscape:connector-curvature="0" />
    <path
       style="fill:none;stroke:#666666;stroke-width:1px;stroke-linecap:butt;stroke-linejoin:miter;stroke-opacity:1"
       d="m 68.185297,69.483755 c 7.879997,-3.540469 6.163573,-3.736743 14.142136,0.252538 1.073832,0.536916 3.623055,0.592598 4.293148,1.262691 2.339069,2.339069 14.934359,-2.542688 16.920059,-3.535534 0.47113,-0.235567 20.82405,4.798224 24.24366,4.798224 11.42937,0 9.14236,-10.050536 18.43528,-0.757614 0.89438,0.894382 3.90384,0.368309 4.79823,1.262691 0.41881,0.418817 10.79742,-3.221278 11.11167,-3.535534 1.27888,-1.278879 5.5457,1.361676 6.31346,1.515229"
       id="path4319"
       inkscape:connector-curvature="0" />
    <path
       style="fill:none;stroke:#666666;stroke-width:1px;stroke-linecap:butt;stroke-linejoin:miter;stroke-opacity:1"
       d="m 64.902301,87.161425 c -0.405425,-0.574295 4.013259,-1.992955 5.555839,-3.535534 0.234587,-0.234587 3.861989,2.309801 4.798225,2.777919 4.286904,2.143452 9.006096,-1.481776 11.364216,-1.010152"
       id="path4321"
       inkscape:connector-curvature="0" />
    <path
       style="fill:none;stroke:#666666;stroke-width:1px;stroke-linecap:butt;stroke-linejoin:miter;stroke-opacity:1"
       d="m 97.479721,86.656348 c 1.678616,-0.917277 2.923739,-1.408508 4.040609,-2.525381 0.64815,-0.648149 3.35197,1.331666 3.53553,1.515229 0.92885,0.92885 4.31354,0.505076 6.06092,0.505076 1.10028,0 2.96794,1.925293 4.79822,1.010153 3.85463,-1.927315 8.81716,-2.547057 11.61676,0.252538 0.25593,0.255933 2.12324,0 2.52538,0 2.05133,0 7.03159,-0.485335 9.09137,-1.515229 2.13853,-1.069265 4.75637,0.715752 5.55584,1.515229 1.80152,1.801517 5.02842,-1.010153 7.57615,-1.010153"
       id="path4323"
       inkscape:connector-curvature="0" />
    <path
       style="fill:none;stroke:#666666;stroke-width:1px;stroke-linecap:butt;stroke-linejoin:miter;stroke-opacity:1"
       d="m 159.09903,86.656348 c 3.16756,-0.493683 11.57364,-2.330319 13.13198,-0.252538"
       id="path4327"
       inkscape:connector-curvature="0" />
    <path
       style="fill:none;stroke:#666666;stroke-width:1px;stroke-linecap:butt;stroke-linejoin:miter;stroke-opacity:1"
       d="m 64.144687,102.06117 c 2.924533,-0.16563 7.160841,-1.35246 8.838834,-3.030453 1.129361,-1.129361 6.756101,6.218403 11.111678,4.040613 4.568233,-2.28412 15.531859,-4.418657 19.445441,-0.50508 1.16271,1.16272 5.54885,0.24556 6.81853,1.51523 2.68506,2.68506 4.26875,-6.085305 6.31345,-4.04061 0.39992,0.39992 0.52201,1.7847 1.01015,2.27284 0.58926,0.58926 2.18867,0.16836 2.77792,0.75762 0.25593,0.25593 2.12324,0 2.52538,0 1.79612,0 7.55256,1.79135 8.33376,1.01015 0.38438,-0.38438 2.75113,-3.81487 4.29315,-2.27284 5.19429,5.19429 20.65879,3.07979 24.74874,-1.01016 0.9199,-0.919898 7.24529,5.46873 12.12183,3.03046"
       id="path4329"
       inkscape:connector-curvature="0" />
    <path
       style="fill:none;stroke:#666666;stroke-width:1px;stroke-linecap:butt;stroke-linejoin:miter;stroke-opacity:1"
       d="m 64.397225,115.69823 c 0.0083,-0.31029 2.025899,0.24695 2.272843,0 5.515893,-5.51589 21.142383,3.35382 21.71828,2.77792 2.363883,-2.36388 8.015226,-2.45938 10.354063,-4.79822 1.123093,-1.12309 2.917519,1.40229 4.040609,2.52538 2.32678,2.32678 7.14948,-2.23364 9.59645,-1.01015 1.72351,0.86175 2.70353,1.85684 4.54569,2.77792"
       id="path4331"
       inkscape:connector-curvature="0" />
    <path
       style="fill:none;stroke:#666666;stroke-width:1px;stroke-linecap:butt;stroke-linejoin:miter;stroke-opacity:1"
       d="m 122.22846,117.97108 c 0.85303,-0.3579 4.38982,-2.95253 7.07107,-4.29315 0.21637,-0.10819 2.36779,1.86272 2.52538,2.0203 1.13791,1.13791 4.29064,0.75511 5.55584,2.02031 1.26563,1.26563 4.91479,-1.76777 6.56599,-1.76777 1.85849,0 6.18034,4.6788 9.09137,1.76777 0.38562,-0.38562 6.68817,-3.91843 7.07107,-3.53553 3.70159,3.70158 4.84269,3.03045 10.10152,3.03045"
       id="path4333"
       inkscape:connector-curvature="0" />
    <path
       style="fill:none;stroke:#666666;stroke-width:1px;stroke-linecap:butt;stroke-linejoin:miter;stroke-opacity:1"
       d="m 63.387072,128.57768 c 10.056031,-2.28606 16.941875,5.16612 25.75889,0.75761"
       id="path4335"
       inkscape:connector-curvature="0" />
    <path
       style="fill:none;stroke:#666666;stroke-width:1px;stroke-linecap:butt;stroke-linejoin:miter;stroke-opacity:1"
       d="m 97.732259,131.3556 c 4.494441,-3.83589 23.875451,3.14613 26.769041,0.25254 0.56177,-0.56177 6.36242,-3.51106 7.32361,-3.03046 2.25478,1.12739 9.15805,6.02757 13.13198,4.04061 1.87679,-0.93839 3.59341,-1.5731 4.79823,-2.77792 0.62941,-0.62941 6.1711,1.76777 8.08122,1.76777 5.23166,0 10.43739,-3.08771 13.88959,1.51523"
       id="path4337"
       inkscape:connector-curvature="0" />
    <path
       style="fill:none;stroke:#666666;stroke-width:1px;stroke-linecap:butt;stroke-linejoin:miter;stroke-opacity:1"
       d="m 62.881996,145.72997 c 4.171169,-2.1982 10.124323,-4.52289 13.889598,-0.75762 2.04725,2.04725 7.636658,-2.46486 9.091372,-1.01015 1.097385,1.09738 6.001127,2.42901 8.333759,1.26269 1.355382,-0.67769 8.131745,-3.48501 8.333755,-3.28299 1.64024,1.64023 5.92679,2.33204 8.33376,3.53553 4.17568,2.08784 10.69609,-5.97143 16.92006,0.25254 4.12399,4.12399 10.60538,-6.31467 13.13198,-3.78807 3.68673,3.68672 16.54873,5.92716 20.45559,2.0203 0.23789,-0.23789 3.09086,1.82817 3.283,2.02031 1.16715,1.16715 5.93894,-0.83424 6.81852,-1.01016"
       id="path4339"
       inkscape:connector-curvature="0" />
    <path
       style="fill:none;stroke:#666666;stroke-width:1px;stroke-linecap:butt;stroke-linejoin:miter;stroke-opacity:1"
       d="m 64.397225,159.63987 c 4.535017,-5.08549 12.692246,0.85121 18.94036,-2.27284"
       id="path4341"
       inkscape:connector-curvature="0" />
    <path
       style="fill:none;stroke:#666666;stroke-width:1px;stroke-linecap:butt;stroke-linejoin:miter;stroke-opacity:1"
       d="m 91.923882,158.37718 c 1.941847,1.97039 15.717228,0.0599 16.162438,0.50508 2.04335,2.04334 6.02561,2.22939 9.59645,1.51522"
       id="path4343"
       inkscape:connector-curvature="0" />
    <path
       style="fill:none;stroke:#666666;stroke-width:1px;stroke-linecap:butt;stroke-linejoin:miter;stroke-opacity:1"
       d="m 127.53176,159.13479 c 2.83332,-5.33651 16.07294,2.36235 17.93021,0.50508 1.47301,-1.47302 3.54222,-2.11998 6.56599,-1.51523"
       id="path4345"
       inkscape:connector-curvature="0" />
    <path
       style="fill:none;stroke:#666666;stroke-width:1px;stroke-linecap:butt;stroke-linejoin:miter;stroke-opacity:1"
       d="m 158.84649,160.14495 c 4.88905,-3.972 7.87798,-1.60639 13.38452,-0.50508"
       id="path4347"
       inkscape:connector-curvature="0" />
    <path
       style="fill:none;stroke:#666666;stroke-width:1px;stroke-linecap:butt;stroke-linejoin:miter;stroke-opacity:1"
       d="m 69.447988,172.26678 c 3.095545,-0.84984 6.456483,-1.26269 10.354063,-1.26269 5.38146,0 9.48802,1.76776 14.142136,1.76776 5.011793,0 8.859053,-3.28299 8.838833,-3.28299 -0.31082,0 5.34976,2.57183 6.06092,3.28299 2.77506,2.77506 8.37809,-3.74374 10.35406,-1.76776 4.27769,4.27769 11.10002,2.27867 15.15229,0.25253"
       id="path4349"
       inkscape:connector-curvature="0" />
    <path
       style="fill:none;stroke:#666666;stroke-width:1px;stroke-linecap:butt;stroke-linejoin:miter;stroke-opacity:1"
       d="m 141.67389,171.7617 c 3.80334,-4.2056 13.66325,4.77204 17.42514,1.01015 0.1367,-0.13671 2.18372,-1.09927 2.77792,-0.50507 2.30412,2.30412 4.39918,2.0496 8.33375,1.26269"
       id="path4351"
       inkscape:connector-curvature="0" />
    <path
       style="fill:none;stroke:#666666;stroke-width:1px;stroke-linecap:butt;stroke-linejoin:miter;stroke-opacity:1"
       d="m 63.387072,184.89368 c 3.814829,-4.3089 20.79391,4.71245 23.233509,2.27285 4.780245,-4.78025 11.641351,-1.76777 18.940359,-1.76777"
       id="path4353"
       inkscape:connector-curvature="0" />
    <path
       style="fill:none;stroke:#666666;stroke-width:1px;stroke-linecap:butt;stroke-linejoin:miter;stroke-opacity:1"
       d="m 130.56222,196.51044 c 3.20724,1.81954 23.12818,-1.56789 24.24366,-1.01015 6.38691,3.19345 4.63482,3.16415 12.87944,1.51522"
       id="path4355"
       inkscape:connector-curvature="0" />
    <g
       id="g4365"
       transform="matrix(0.98293299,0.18396396,-0.18396396,0.98293299,23.85776,-43.747244)">
      <path
         sodipodi:nodetypes="ccccc"
         inkscape:connector-curvature="0"
         id="rect4360"
         d="m 214.94615,58.433609 c 4.32169,4.526355 3.62527,77.799891 3.62527,101.071431 0,16.41498 -4.67162,25.00128 -4.67162,25.00128 0,0 -4.25695,-11.11168 -4.25695,-25.00128 0,0 2.27284,-99.303664 5.3033,-101.071431 z"
         style="fill:#e6e6e6;fill-opacity:1;stroke:#666666;stroke-width:1;stroke-miterlimit:4;stroke-opacity:1" />
      <rect
         y="165.44824"
         x="210.36427"
         height="0.50507629"
         width="8.0812206"
         id="rect4363"
         style="fill:#e6e6e6;fill-opacity:1;stroke:#666666;stroke-width:1;stroke-miterlimit:4;stroke-opacity:1;stroke-dasharray:none" />
    </g>
  </g>
</svg>
